<mxfile host="Electron" modified="2024-02-25T01:46:30.716Z" agent="Mozilla/5.0 (Windows NT 10.0; Win64; x64) AppleWebKit/537.36 (KHTML, like Gecko) draw.io/22.1.16 Chrome/120.0.6099.109 Electron/28.1.0 Safari/537.36" etag="wuc21lMGidhOmA7p_ky2" version="22.1.16" type="device">
  <diagram name="Page-1" id="f0FCy_oflD6IK6BXw7R2">
    <mxGraphModel dx="3718" dy="1672" grid="1" gridSize="10" guides="1" tooltips="1" connect="1" arrows="1" fold="1" page="1" pageScale="1" pageWidth="850" pageHeight="1100" math="0" shadow="0">
      <root>
        <mxCell id="0" />
        <mxCell id="1" parent="0" />
        <mxCell id="RPXABTPHDYD-xbvYE4U6-18" value="ElevatorCall" style="swimlane;fontStyle=1;align=center;verticalAlign=top;childLayout=stackLayout;horizontal=1;startSize=26;horizontalStack=0;resizeParent=1;resizeParentMax=0;resizeLast=0;collapsible=1;marginBottom=0;whiteSpace=wrap;html=1;" parent="1" vertex="1">
          <mxGeometry x="-690" y="20" width="530" height="450" as="geometry" />
        </mxCell>
        <mxCell id="RPXABTPHDYD-xbvYE4U6-19" value="-&amp;nbsp;timestamp : Date" style="text;strokeColor=none;fillColor=none;align=left;verticalAlign=top;spacingLeft=4;spacingRight=4;overflow=hidden;rotatable=0;points=[[0,0.5],[1,0.5]];portConstraint=eastwest;whiteSpace=wrap;html=1;" parent="RPXABTPHDYD-xbvYE4U6-18" vertex="1">
          <mxGeometry y="26" width="530" height="26" as="geometry" />
        </mxCell>
        <mxCell id="RPXABTPHDYD-xbvYE4U6-20" value="-&amp;nbsp;startingFloor : int" style="text;strokeColor=none;fillColor=none;align=left;verticalAlign=top;spacingLeft=4;spacingRight=4;overflow=hidden;rotatable=0;points=[[0,0.5],[1,0.5]];portConstraint=eastwest;whiteSpace=wrap;html=1;" parent="RPXABTPHDYD-xbvYE4U6-18" vertex="1">
          <mxGeometry y="52" width="530" height="26" as="geometry" />
        </mxCell>
        <mxCell id="RPXABTPHDYD-xbvYE4U6-21" value="-&amp;nbsp;targetFloors : List&amp;lt;Integer&amp;gt;" style="text;strokeColor=none;fillColor=none;align=left;verticalAlign=top;spacingLeft=4;spacingRight=4;overflow=hidden;rotatable=0;points=[[0,0.5],[1,0.5]];portConstraint=eastwest;whiteSpace=wrap;html=1;" parent="RPXABTPHDYD-xbvYE4U6-18" vertex="1">
          <mxGeometry y="78" width="530" height="26" as="geometry" />
        </mxCell>
        <mxCell id="RPXABTPHDYD-xbvYE4U6-22" value="-&amp;nbsp;direction : String" style="text;strokeColor=none;fillColor=none;align=left;verticalAlign=top;spacingLeft=4;spacingRight=4;overflow=hidden;rotatable=0;points=[[0,0.5],[1,0.5]];portConstraint=eastwest;whiteSpace=wrap;html=1;" parent="RPXABTPHDYD-xbvYE4U6-18" vertex="1">
          <mxGeometry y="104" width="530" height="26" as="geometry" />
        </mxCell>
        <mxCell id="RPXABTPHDYD-xbvYE4U6-27" value="-&amp;nbsp;owner : ElevatorSubsystem" style="text;strokeColor=none;fillColor=none;align=left;verticalAlign=top;spacingLeft=4;spacingRight=4;overflow=hidden;rotatable=0;points=[[0,0.5],[1,0.5]];portConstraint=eastwest;whiteSpace=wrap;html=1;" parent="RPXABTPHDYD-xbvYE4U6-18" vertex="1">
          <mxGeometry y="130" width="530" height="26" as="geometry" />
        </mxCell>
        <mxCell id="RPXABTPHDYD-xbvYE4U6-23" value="" style="line;strokeWidth=1;fillColor=none;align=left;verticalAlign=middle;spacingTop=-1;spacingLeft=3;spacingRight=3;rotatable=0;labelPosition=right;points=[];portConstraint=eastwest;strokeColor=inherit;" parent="RPXABTPHDYD-xbvYE4U6-18" vertex="1">
          <mxGeometry y="156" width="530" height="8" as="geometry" />
        </mxCell>
        <mxCell id="RPXABTPHDYD-xbvYE4U6-24" value="+&amp;nbsp;ElevatorCall(timestamp : Date, startingFloor : int, targetFloor : int, direction : String)" style="text;strokeColor=none;fillColor=none;align=left;verticalAlign=top;spacingLeft=4;spacingRight=4;overflow=hidden;rotatable=0;points=[[0,0.5],[1,0.5]];portConstraint=eastwest;whiteSpace=wrap;html=1;" parent="RPXABTPHDYD-xbvYE4U6-18" vertex="1">
          <mxGeometry y="164" width="530" height="26" as="geometry" />
        </mxCell>
        <mxCell id="RPXABTPHDYD-xbvYE4U6-25" value="+&amp;nbsp;getTimestamp() : Date" style="text;strokeColor=none;fillColor=none;align=left;verticalAlign=top;spacingLeft=4;spacingRight=4;overflow=hidden;rotatable=0;points=[[0,0.5],[1,0.5]];portConstraint=eastwest;whiteSpace=wrap;html=1;" parent="RPXABTPHDYD-xbvYE4U6-18" vertex="1">
          <mxGeometry y="190" width="530" height="26" as="geometry" />
        </mxCell>
        <mxCell id="RPXABTPHDYD-xbvYE4U6-28" value="+&amp;nbsp;setElevatorCarDetected()" style="text;strokeColor=none;fillColor=none;align=left;verticalAlign=top;spacingLeft=4;spacingRight=4;overflow=hidden;rotatable=0;points=[[0,0.5],[1,0.5]];portConstraint=eastwest;whiteSpace=wrap;html=1;" parent="RPXABTPHDYD-xbvYE4U6-18" vertex="1">
          <mxGeometry y="216" width="530" height="26" as="geometry" />
        </mxCell>
        <mxCell id="RPXABTPHDYD-xbvYE4U6-26" value="+&amp;nbsp;getStartingFloor() : int" style="text;strokeColor=none;fillColor=none;align=left;verticalAlign=top;spacingLeft=4;spacingRight=4;overflow=hidden;rotatable=0;points=[[0,0.5],[1,0.5]];portConstraint=eastwest;whiteSpace=wrap;html=1;" parent="RPXABTPHDYD-xbvYE4U6-18" vertex="1">
          <mxGeometry y="242" width="530" height="26" as="geometry" />
        </mxCell>
        <mxCell id="RPXABTPHDYD-xbvYE4U6-42" value="+&amp;nbsp;getNextFloor() : int" style="text;strokeColor=none;fillColor=none;align=left;verticalAlign=top;spacingLeft=4;spacingRight=4;overflow=hidden;rotatable=0;points=[[0,0.5],[1,0.5]];portConstraint=eastwest;whiteSpace=wrap;html=1;" parent="RPXABTPHDYD-xbvYE4U6-18" vertex="1">
          <mxGeometry y="268" width="530" height="26" as="geometry" />
        </mxCell>
        <mxCell id="RPXABTPHDYD-xbvYE4U6-43" value="+&amp;nbsp;getDirection() : String" style="text;strokeColor=none;fillColor=none;align=left;verticalAlign=top;spacingLeft=4;spacingRight=4;overflow=hidden;rotatable=0;points=[[0,0.5],[1,0.5]];portConstraint=eastwest;whiteSpace=wrap;html=1;" parent="RPXABTPHDYD-xbvYE4U6-18" vertex="1">
          <mxGeometry y="294" width="530" height="26" as="geometry" />
        </mxCell>
        <mxCell id="RPXABTPHDYD-xbvYE4U6-44" value="+&amp;nbsp;getOwner() : ElevatorSubsystem" style="text;strokeColor=none;fillColor=none;align=left;verticalAlign=top;spacingLeft=4;spacingRight=4;overflow=hidden;rotatable=0;points=[[0,0.5],[1,0.5]];portConstraint=eastwest;whiteSpace=wrap;html=1;" parent="RPXABTPHDYD-xbvYE4U6-18" vertex="1">
          <mxGeometry y="320" width="530" height="26" as="geometry" />
        </mxCell>
        <mxCell id="RPXABTPHDYD-xbvYE4U6-45" value="+&amp;nbsp;setOwner(owner : ElevatorSubsystem) : void" style="text;strokeColor=none;fillColor=none;align=left;verticalAlign=top;spacingLeft=4;spacingRight=4;overflow=hidden;rotatable=0;points=[[0,0.5],[1,0.5]];portConstraint=eastwest;whiteSpace=wrap;html=1;" parent="RPXABTPHDYD-xbvYE4U6-18" vertex="1">
          <mxGeometry y="346" width="530" height="26" as="geometry" />
        </mxCell>
        <mxCell id="RPXABTPHDYD-xbvYE4U6-46" value="+&amp;nbsp;mergeRequest(request : ElevatorCall) : boolean" style="text;strokeColor=none;fillColor=none;align=left;verticalAlign=top;spacingLeft=4;spacingRight=4;overflow=hidden;rotatable=0;points=[[0,0.5],[1,0.5]];portConstraint=eastwest;whiteSpace=wrap;html=1;" parent="RPXABTPHDYD-xbvYE4U6-18" vertex="1">
          <mxGeometry y="372" width="530" height="26" as="geometry" />
        </mxCell>
        <mxCell id="RPXABTPHDYD-xbvYE4U6-47" value="+&amp;nbsp;canMerge(request : ElevatorCall) : boolean" style="text;strokeColor=none;fillColor=none;align=left;verticalAlign=top;spacingLeft=4;spacingRight=4;overflow=hidden;rotatable=0;points=[[0,0.5],[1,0.5]];portConstraint=eastwest;whiteSpace=wrap;html=1;" parent="RPXABTPHDYD-xbvYE4U6-18" vertex="1">
          <mxGeometry y="398" width="530" height="26" as="geometry" />
        </mxCell>
        <mxCell id="RPXABTPHDYD-xbvYE4U6-29" value="+&amp;nbsp;fromString(repr : String) : ElevatorCall" style="text;strokeColor=none;fillColor=none;align=left;verticalAlign=top;spacingLeft=4;spacingRight=4;overflow=hidden;rotatable=0;points=[[0,0.5],[1,0.5]];portConstraint=eastwest;whiteSpace=wrap;html=1;" parent="RPXABTPHDYD-xbvYE4U6-18" vertex="1">
          <mxGeometry y="424" width="530" height="26" as="geometry" />
        </mxCell>
        <mxCell id="RPXABTPHDYD-xbvYE4U6-74" value="FloorSubsystem" style="swimlane;fontStyle=1;align=center;verticalAlign=top;childLayout=stackLayout;horizontal=1;startSize=26;horizontalStack=0;resizeParent=1;resizeParentMax=0;resizeLast=0;collapsible=1;marginBottom=0;whiteSpace=wrap;html=1;" parent="1" vertex="1">
          <mxGeometry x="932" y="534.23" width="549" height="190" as="geometry" />
        </mxCell>
        <mxCell id="RPXABTPHDYD-xbvYE4U6-75" value="- inputFilepath : String" style="text;strokeColor=none;fillColor=none;align=left;verticalAlign=top;spacingLeft=4;spacingRight=4;overflow=hidden;rotatable=0;points=[[0,0.5],[1,0.5]];portConstraint=eastwest;whiteSpace=wrap;html=1;" parent="RPXABTPHDYD-xbvYE4U6-74" vertex="1">
          <mxGeometry y="26" width="549" height="26" as="geometry" />
        </mxCell>
        <mxCell id="RPXABTPHDYD-xbvYE4U6-76" value="- elevatorCarDisplay : Map&amp;lt;Integer, Integer&amp;gt;&lt;br&gt;" style="text;strokeColor=none;fillColor=none;align=left;verticalAlign=top;spacingLeft=4;spacingRight=4;overflow=hidden;rotatable=0;points=[[0,0.5],[1,0.5]];portConstraint=eastwest;whiteSpace=wrap;html=1;" parent="RPXABTPHDYD-xbvYE4U6-74" vertex="1">
          <mxGeometry y="52" width="549" height="26" as="geometry" />
        </mxCell>
        <mxCell id="RPXABTPHDYD-xbvYE4U6-77" value="-&amp;nbsp;scheduler : Scheduler" style="text;strokeColor=none;fillColor=none;align=left;verticalAlign=top;spacingLeft=4;spacingRight=4;overflow=hidden;rotatable=0;points=[[0,0.5],[1,0.5]];portConstraint=eastwest;whiteSpace=wrap;html=1;" parent="RPXABTPHDYD-xbvYE4U6-74" vertex="1">
          <mxGeometry y="78" width="549" height="26" as="geometry" />
        </mxCell>
        <mxCell id="RPXABTPHDYD-xbvYE4U6-82" value="" style="line;strokeWidth=1;fillColor=none;align=left;verticalAlign=middle;spacingTop=-1;spacingLeft=3;spacingRight=3;rotatable=0;labelPosition=right;points=[];portConstraint=eastwest;strokeColor=inherit;" parent="RPXABTPHDYD-xbvYE4U6-74" vertex="1">
          <mxGeometry y="104" width="549" height="8" as="geometry" />
        </mxCell>
        <mxCell id="RPXABTPHDYD-xbvYE4U6-83" value="&lt;div&gt;+ FloorSubsystem(scheduler: Scheduler, inputFilepath: String): void&lt;/div&gt;&lt;div&gt;&lt;br&gt;&lt;/div&gt;" style="text;strokeColor=none;fillColor=none;align=left;verticalAlign=top;spacingLeft=4;spacingRight=4;overflow=hidden;rotatable=0;points=[[0,0.5],[1,0.5]];portConstraint=eastwest;whiteSpace=wrap;html=1;" parent="RPXABTPHDYD-xbvYE4U6-74" vertex="1">
          <mxGeometry y="112" width="549" height="26" as="geometry" />
        </mxCell>
        <mxCell id="RPXABTPHDYD-xbvYE4U6-84" value="+ updateElevatorCarDisplay(elevatorId: int, currFloor: int): void" style="text;strokeColor=none;fillColor=none;align=left;verticalAlign=top;spacingLeft=4;spacingRight=4;overflow=hidden;rotatable=0;points=[[0,0.5],[1,0.5]];portConstraint=eastwest;whiteSpace=wrap;html=1;" parent="RPXABTPHDYD-xbvYE4U6-74" vertex="1">
          <mxGeometry y="138" width="549" height="26" as="geometry" />
        </mxCell>
        <mxCell id="RPXABTPHDYD-xbvYE4U6-88" value="+ run(): void" style="text;strokeColor=none;fillColor=none;align=left;verticalAlign=top;spacingLeft=4;spacingRight=4;overflow=hidden;rotatable=0;points=[[0,0.5],[1,0.5]];portConstraint=eastwest;whiteSpace=wrap;html=1;" parent="RPXABTPHDYD-xbvYE4U6-74" vertex="1">
          <mxGeometry y="164" width="549" height="26" as="geometry" />
        </mxCell>
        <mxCell id="RPXABTPHDYD-xbvYE4U6-132" value="" style="endArrow=classic;startArrow=classic;html=1;rounded=0;exitX=1;exitY=0.5;exitDx=0;exitDy=0;edgeStyle=elbowEdgeStyle;entryX=0.499;entryY=1.055;entryDx=0;entryDy=0;entryPerimeter=0;" parent="1" target="pljS_0pMEZ1_xS8Ss-Gu-40" edge="1">
          <mxGeometry width="50" height="50" relative="1" as="geometry">
            <mxPoint x="-151" y="953" as="sourcePoint" />
            <mxPoint x="220.00000000000045" y="758.0000000000002" as="targetPoint" />
            <Array as="points">
              <mxPoint x="220" y="830" />
            </Array>
          </mxGeometry>
        </mxCell>
        <mxCell id="RPXABTPHDYD-xbvYE4U6-133" value="1" style="edgeLabel;html=1;align=center;verticalAlign=middle;resizable=0;points=[];" parent="RPXABTPHDYD-xbvYE4U6-132" vertex="1" connectable="0">
          <mxGeometry x="0.9031" y="-1" relative="1" as="geometry">
            <mxPoint as="offset" />
          </mxGeometry>
        </mxCell>
        <mxCell id="RPXABTPHDYD-xbvYE4U6-134" value="n" style="edgeLabel;html=1;align=center;verticalAlign=middle;resizable=0;points=[];" parent="RPXABTPHDYD-xbvYE4U6-132" vertex="1" connectable="0">
          <mxGeometry x="-0.8789" y="-2" relative="1" as="geometry">
            <mxPoint y="-1" as="offset" />
          </mxGeometry>
        </mxCell>
        <mxCell id="RPXABTPHDYD-xbvYE4U6-135" value="" style="endArrow=diamondThin;endFill=0;endSize=24;html=1;rounded=0;" parent="1" target="RPXABTPHDYD-xbvYE4U6-29" edge="1">
          <mxGeometry width="160" relative="1" as="geometry">
            <mxPoint x="-425.2100515463917" y="620" as="sourcePoint" />
            <mxPoint x="280" y="610" as="targetPoint" />
          </mxGeometry>
        </mxCell>
        <mxCell id="RPXABTPHDYD-xbvYE4U6-136" value="1" style="edgeLabel;html=1;align=center;verticalAlign=middle;resizable=0;points=[];" parent="RPXABTPHDYD-xbvYE4U6-135" vertex="1" connectable="0">
          <mxGeometry x="-0.7445" y="-1" relative="1" as="geometry">
            <mxPoint as="offset" />
          </mxGeometry>
        </mxCell>
        <mxCell id="RPXABTPHDYD-xbvYE4U6-137" value="0..1" style="edgeLabel;html=1;align=center;verticalAlign=middle;resizable=0;points=[];" parent="RPXABTPHDYD-xbvYE4U6-135" vertex="1" connectable="0">
          <mxGeometry x="0.5304" y="-1" relative="1" as="geometry">
            <mxPoint as="offset" />
          </mxGeometry>
        </mxCell>
        <mxCell id="RPXABTPHDYD-xbvYE4U6-138" value="" style="endArrow=classic;html=1;rounded=0;exitX=0;exitY=0.5;exitDx=0;exitDy=0;entryX=1.002;entryY=0.173;entryDx=0;entryDy=0;edgeStyle=elbowEdgeStyle;elbow=vertical;entryPerimeter=0;" parent="1" source="RPXABTPHDYD-xbvYE4U6-84" target="pljS_0pMEZ1_xS8Ss-Gu-36" edge="1">
          <mxGeometry width="50" height="50" relative="1" as="geometry">
            <mxPoint x="211" y="251" as="sourcePoint" />
            <mxPoint x="353.4200000000001" y="760.7560000000001" as="targetPoint" />
            <Array as="points">
              <mxPoint x="740" y="690" />
            </Array>
          </mxGeometry>
        </mxCell>
        <mxCell id="RPXABTPHDYD-xbvYE4U6-139" value="1" style="edgeLabel;html=1;align=center;verticalAlign=middle;resizable=0;points=[];" parent="RPXABTPHDYD-xbvYE4U6-138" vertex="1" connectable="0">
          <mxGeometry x="-0.6883" y="-2" relative="1" as="geometry">
            <mxPoint as="offset" />
          </mxGeometry>
        </mxCell>
        <mxCell id="RPXABTPHDYD-xbvYE4U6-140" value="1" style="edgeLabel;html=1;align=center;verticalAlign=middle;resizable=0;points=[];" parent="RPXABTPHDYD-xbvYE4U6-138" vertex="1" connectable="0">
          <mxGeometry x="0.427" y="1" relative="1" as="geometry">
            <mxPoint as="offset" />
          </mxGeometry>
        </mxCell>
        <mxCell id="RPXABTPHDYD-xbvYE4U6-147" value="" style="endArrow=diamondThin;endFill=0;endSize=24;html=1;rounded=0;exitX=0.216;exitY=0;exitDx=0;exitDy=0;exitPerimeter=0;edgeStyle=elbowEdgeStyle;elbow=vertical;" parent="1" edge="1">
          <mxGeometry width="160" relative="1" as="geometry">
            <mxPoint x="42.5600000000004" y="360.0000000000002" as="sourcePoint" />
            <mxPoint x="-160" y="310" as="targetPoint" />
            <Array as="points">
              <mxPoint x="-70" y="310" />
            </Array>
          </mxGeometry>
        </mxCell>
        <mxCell id="RPXABTPHDYD-xbvYE4U6-148" value="1" style="edgeLabel;html=1;align=center;verticalAlign=middle;resizable=0;points=[];" parent="RPXABTPHDYD-xbvYE4U6-147" vertex="1" connectable="0">
          <mxGeometry x="-0.7445" y="-1" relative="1" as="geometry">
            <mxPoint as="offset" />
          </mxGeometry>
        </mxCell>
        <mxCell id="RPXABTPHDYD-xbvYE4U6-149" value="n" style="edgeLabel;html=1;align=center;verticalAlign=middle;resizable=0;points=[];" parent="RPXABTPHDYD-xbvYE4U6-147" vertex="1" connectable="0">
          <mxGeometry x="0.5304" y="-1" relative="1" as="geometry">
            <mxPoint as="offset" />
          </mxGeometry>
        </mxCell>
        <mxCell id="pljS_0pMEZ1_xS8Ss-Gu-21" style="edgeStyle=orthogonalEdgeStyle;rounded=0;orthogonalLoop=1;jettySize=auto;html=1;entryX=0.5;entryY=0;entryDx=0;entryDy=0;dashed=1;startArrow=block;startFill=0;endArrow=none;endFill=0;" edge="1" parent="1" source="pljS_0pMEZ1_xS8Ss-Gu-1" target="pljS_0pMEZ1_xS8Ss-Gu-9">
          <mxGeometry relative="1" as="geometry" />
        </mxCell>
        <mxCell id="pljS_0pMEZ1_xS8Ss-Gu-1" value="&amp;lt;&amp;lt;interface&amp;gt;&amp;gt;&lt;br&gt;ShcedulerState&lt;br&gt;&lt;br&gt;" style="swimlane;fontStyle=1;align=center;verticalAlign=top;childLayout=stackLayout;horizontal=1;startSize=40;horizontalStack=0;resizeParent=1;resizeParentMax=0;resizeLast=0;collapsible=1;marginBottom=0;whiteSpace=wrap;html=1;" vertex="1" parent="1">
          <mxGeometry x="262" y="50" width="430" height="120" as="geometry" />
        </mxCell>
        <mxCell id="pljS_0pMEZ1_xS8Ss-Gu-2" value="- inputFilepath : String" style="text;strokeColor=none;fillColor=none;align=left;verticalAlign=top;spacingLeft=4;spacingRight=4;overflow=hidden;rotatable=0;points=[[0,0.5],[1,0.5]];portConstraint=eastwest;whiteSpace=wrap;html=1;" vertex="1" parent="pljS_0pMEZ1_xS8Ss-Gu-1">
          <mxGeometry y="40" width="430" height="2" as="geometry" />
        </mxCell>
        <mxCell id="pljS_0pMEZ1_xS8Ss-Gu-6" value="&lt;div&gt;+ addRequest(context: Scheduler, elevatorCall: ElevatorCall): void&lt;/div&gt;&lt;div&gt;&lt;br&gt;&lt;/div&gt;" style="text;strokeColor=none;fillColor=none;align=left;verticalAlign=top;spacingLeft=4;spacingRight=4;overflow=hidden;rotatable=0;points=[[0,0.5],[1,0.5]];portConstraint=eastwest;whiteSpace=wrap;html=1;" vertex="1" parent="pljS_0pMEZ1_xS8Ss-Gu-1">
          <mxGeometry y="42" width="430" height="26" as="geometry" />
        </mxCell>
        <mxCell id="pljS_0pMEZ1_xS8Ss-Gu-7" value="+ getNextAction(elevatorId: int, currentFloor: int):&amp;nbsp;ElevatorSubsystem.Action" style="text;strokeColor=none;fillColor=none;align=left;verticalAlign=top;spacingLeft=4;spacingRight=4;overflow=hidden;rotatable=0;points=[[0,0.5],[1,0.5]];portConstraint=eastwest;whiteSpace=wrap;html=1;" vertex="1" parent="pljS_0pMEZ1_xS8Ss-Gu-1">
          <mxGeometry y="68" width="430" height="26" as="geometry" />
        </mxCell>
        <mxCell id="pljS_0pMEZ1_xS8Ss-Gu-8" value="&lt;i&gt;+ displatState(): void&lt;/i&gt;" style="text;strokeColor=none;fillColor=none;align=left;verticalAlign=top;spacingLeft=4;spacingRight=4;overflow=hidden;rotatable=0;points=[[0,0.5],[1,0.5]];portConstraint=eastwest;whiteSpace=wrap;html=1;" vertex="1" parent="pljS_0pMEZ1_xS8Ss-Gu-1">
          <mxGeometry y="94" width="430" height="26" as="geometry" />
        </mxCell>
        <mxCell id="pljS_0pMEZ1_xS8Ss-Gu-9" value="WaitingForRequest" style="swimlane;fontStyle=1;align=center;verticalAlign=top;childLayout=stackLayout;horizontal=1;startSize=30;horizontalStack=0;resizeParent=1;resizeParentMax=0;resizeLast=0;collapsible=1;marginBottom=0;whiteSpace=wrap;html=1;" vertex="1" parent="1">
          <mxGeometry x="222" y="250" width="150" height="58" as="geometry" />
        </mxCell>
        <mxCell id="pljS_0pMEZ1_xS8Ss-Gu-10" value="- inputFilepath : String" style="text;strokeColor=none;fillColor=none;align=left;verticalAlign=top;spacingLeft=4;spacingRight=4;overflow=hidden;rotatable=0;points=[[0,0.5],[1,0.5]];portConstraint=eastwest;whiteSpace=wrap;html=1;" vertex="1" parent="pljS_0pMEZ1_xS8Ss-Gu-9">
          <mxGeometry y="30" width="150" height="2" as="geometry" />
        </mxCell>
        <mxCell id="pljS_0pMEZ1_xS8Ss-Gu-13" value="+ displatState(): void" style="text;strokeColor=none;fillColor=none;align=left;verticalAlign=top;spacingLeft=4;spacingRight=4;overflow=hidden;rotatable=0;points=[[0,0.5],[1,0.5]];portConstraint=eastwest;whiteSpace=wrap;html=1;" vertex="1" parent="pljS_0pMEZ1_xS8Ss-Gu-9">
          <mxGeometry y="32" width="150" height="26" as="geometry" />
        </mxCell>
        <mxCell id="pljS_0pMEZ1_xS8Ss-Gu-14" value="AddingRequest" style="swimlane;fontStyle=1;align=center;verticalAlign=top;childLayout=stackLayout;horizontal=1;startSize=30;horizontalStack=0;resizeParent=1;resizeParentMax=0;resizeLast=0;collapsible=1;marginBottom=0;whiteSpace=wrap;html=1;" vertex="1" parent="1">
          <mxGeometry x="402" y="250" width="150" height="58" as="geometry" />
        </mxCell>
        <mxCell id="pljS_0pMEZ1_xS8Ss-Gu-15" value="- inputFilepath : String" style="text;strokeColor=none;fillColor=none;align=left;verticalAlign=top;spacingLeft=4;spacingRight=4;overflow=hidden;rotatable=0;points=[[0,0.5],[1,0.5]];portConstraint=eastwest;whiteSpace=wrap;html=1;" vertex="1" parent="pljS_0pMEZ1_xS8Ss-Gu-14">
          <mxGeometry y="30" width="150" height="2" as="geometry" />
        </mxCell>
        <mxCell id="pljS_0pMEZ1_xS8Ss-Gu-16" value="+ displatState(): void" style="text;strokeColor=none;fillColor=none;align=left;verticalAlign=top;spacingLeft=4;spacingRight=4;overflow=hidden;rotatable=0;points=[[0,0.5],[1,0.5]];portConstraint=eastwest;whiteSpace=wrap;html=1;" vertex="1" parent="pljS_0pMEZ1_xS8Ss-Gu-14">
          <mxGeometry y="32" width="150" height="26" as="geometry" />
        </mxCell>
        <mxCell id="pljS_0pMEZ1_xS8Ss-Gu-17" value="AssigningAction" style="swimlane;fontStyle=1;align=center;verticalAlign=top;childLayout=stackLayout;horizontal=1;startSize=30;horizontalStack=0;resizeParent=1;resizeParentMax=0;resizeLast=0;collapsible=1;marginBottom=0;whiteSpace=wrap;html=1;" vertex="1" parent="1">
          <mxGeometry x="582" y="250" width="150" height="58" as="geometry" />
        </mxCell>
        <mxCell id="pljS_0pMEZ1_xS8Ss-Gu-18" value="- inputFilepath : String" style="text;strokeColor=none;fillColor=none;align=left;verticalAlign=top;spacingLeft=4;spacingRight=4;overflow=hidden;rotatable=0;points=[[0,0.5],[1,0.5]];portConstraint=eastwest;whiteSpace=wrap;html=1;" vertex="1" parent="pljS_0pMEZ1_xS8Ss-Gu-17">
          <mxGeometry y="30" width="150" height="2" as="geometry" />
        </mxCell>
        <mxCell id="pljS_0pMEZ1_xS8Ss-Gu-19" value="+ displatState(): void" style="text;strokeColor=none;fillColor=none;align=left;verticalAlign=top;spacingLeft=4;spacingRight=4;overflow=hidden;rotatable=0;points=[[0,0.5],[1,0.5]];portConstraint=eastwest;whiteSpace=wrap;html=1;" vertex="1" parent="pljS_0pMEZ1_xS8Ss-Gu-17">
          <mxGeometry y="32" width="150" height="26" as="geometry" />
        </mxCell>
        <mxCell id="pljS_0pMEZ1_xS8Ss-Gu-23" style="edgeStyle=orthogonalEdgeStyle;rounded=0;orthogonalLoop=1;jettySize=auto;html=1;entryX=0.5;entryY=0;entryDx=0;entryDy=0;dashed=1;startArrow=block;startFill=0;endArrow=none;endFill=0;exitX=0.498;exitY=1.029;exitDx=0;exitDy=0;exitPerimeter=0;" edge="1" parent="1" source="pljS_0pMEZ1_xS8Ss-Gu-8" target="pljS_0pMEZ1_xS8Ss-Gu-17">
          <mxGeometry relative="1" as="geometry">
            <mxPoint x="487" y="180" as="sourcePoint" />
            <mxPoint x="307" y="260" as="targetPoint" />
          </mxGeometry>
        </mxCell>
        <mxCell id="pljS_0pMEZ1_xS8Ss-Gu-24" style="edgeStyle=orthogonalEdgeStyle;rounded=0;orthogonalLoop=1;jettySize=auto;html=1;entryX=0.5;entryY=0;entryDx=0;entryDy=0;dashed=1;startArrow=block;startFill=0;endArrow=none;endFill=0;" edge="1" parent="1" target="pljS_0pMEZ1_xS8Ss-Gu-14">
          <mxGeometry relative="1" as="geometry">
            <mxPoint x="477" y="170" as="sourcePoint" />
            <mxPoint x="317" y="270" as="targetPoint" />
            <Array as="points">
              <mxPoint x="477" y="172" />
            </Array>
          </mxGeometry>
        </mxCell>
        <mxCell id="pljS_0pMEZ1_xS8Ss-Gu-41" style="edgeStyle=orthogonalEdgeStyle;rounded=0;orthogonalLoop=1;jettySize=auto;html=1;entryX=0;entryY=0.25;entryDx=0;entryDy=0;exitX=0.378;exitY=-0.005;exitDx=0;exitDy=0;exitPerimeter=0;" edge="1" parent="1" source="pljS_0pMEZ1_xS8Ss-Gu-25" target="pljS_0pMEZ1_xS8Ss-Gu-1">
          <mxGeometry relative="1" as="geometry">
            <Array as="points">
              <mxPoint x="139" y="80" />
            </Array>
          </mxGeometry>
        </mxCell>
        <mxCell id="pljS_0pMEZ1_xS8Ss-Gu-42" value="Uses" style="edgeLabel;html=1;align=center;verticalAlign=middle;resizable=0;points=[];" vertex="1" connectable="0" parent="pljS_0pMEZ1_xS8Ss-Gu-41">
          <mxGeometry x="0.3411" y="2" relative="1" as="geometry">
            <mxPoint y="111" as="offset" />
          </mxGeometry>
        </mxCell>
        <mxCell id="pljS_0pMEZ1_xS8Ss-Gu-25" value="Scheduler" style="swimlane;fontStyle=1;align=center;verticalAlign=top;childLayout=stackLayout;horizontal=1;startSize=26;horizontalStack=0;resizeParent=1;resizeParentMax=0;resizeLast=0;collapsible=1;marginBottom=0;whiteSpace=wrap;html=1;" vertex="1" parent="1">
          <mxGeometry x="-110" y="358" width="660" height="480" as="geometry" />
        </mxCell>
        <mxCell id="pljS_0pMEZ1_xS8Ss-Gu-26" value="- FloorSubsystemNodes : List&amp;lt;Runnable&amp;gt;&lt;br&gt;" style="text;strokeColor=none;fillColor=none;align=left;verticalAlign=top;spacingLeft=4;spacingRight=4;overflow=hidden;rotatable=0;points=[[0,0.5],[1,0.5]];portConstraint=eastwest;whiteSpace=wrap;html=1;" vertex="1" parent="pljS_0pMEZ1_xS8Ss-Gu-25">
          <mxGeometry y="26" width="660" height="26" as="geometry" />
        </mxCell>
        <mxCell id="pljS_0pMEZ1_xS8Ss-Gu-27" value="&lt;div&gt;- elevatorSubsystemNodes : List&amp;lt;Runnable&amp;gt;&lt;/div&gt;&lt;div&gt;&lt;br&gt;&lt;/div&gt;" style="text;strokeColor=none;fillColor=none;align=left;verticalAlign=top;spacingLeft=4;spacingRight=4;overflow=hidden;rotatable=0;points=[[0,0.5],[1,0.5]];portConstraint=eastwest;whiteSpace=wrap;html=1;" vertex="1" parent="pljS_0pMEZ1_xS8Ss-Gu-25">
          <mxGeometry y="52" width="660" height="26" as="geometry" />
        </mxCell>
        <mxCell id="pljS_0pMEZ1_xS8Ss-Gu-28" value="- requestQueue : List&amp;lt;ElevatorCall&amp;gt;" style="text;strokeColor=none;fillColor=none;align=left;verticalAlign=top;spacingLeft=4;spacingRight=4;overflow=hidden;rotatable=0;points=[[0,0.5],[1,0.5]];portConstraint=eastwest;whiteSpace=wrap;html=1;" vertex="1" parent="pljS_0pMEZ1_xS8Ss-Gu-25">
          <mxGeometry y="78" width="660" height="26" as="geometry" />
        </mxCell>
        <mxCell id="pljS_0pMEZ1_xS8Ss-Gu-29" value="- activeTrips : List&amp;lt;ElevatorCall&amp;gt;" style="text;strokeColor=none;fillColor=none;align=left;verticalAlign=top;spacingLeft=4;spacingRight=4;overflow=hidden;rotatable=0;points=[[0,0.5],[1,0.5]];portConstraint=eastwest;whiteSpace=wrap;html=1;" vertex="1" parent="pljS_0pMEZ1_xS8Ss-Gu-25">
          <mxGeometry y="104" width="660" height="26" as="geometry" />
        </mxCell>
        <mxCell id="pljS_0pMEZ1_xS8Ss-Gu-30" value="- scheduler : Scheduler (static)&lt;br&gt;&lt;br&gt;- currentState : SchedulerState&lt;br&gt;&lt;br&gt;- states: HashMap&amp;lt;SchedulerState&amp;gt;&lt;br&gt;" style="text;strokeColor=none;fillColor=none;align=left;verticalAlign=top;spacingLeft=4;spacingRight=4;overflow=hidden;rotatable=0;points=[[0,0.5],[1,0.5]];portConstraint=eastwest;whiteSpace=wrap;html=1;" vertex="1" parent="pljS_0pMEZ1_xS8Ss-Gu-25">
          <mxGeometry y="130" width="660" height="350" as="geometry" />
        </mxCell>
        <mxCell id="pljS_0pMEZ1_xS8Ss-Gu-40" value="&lt;div&gt;&lt;div&gt;+ getNextAction(caller : ElevatorSubsystem) : ElevatorCall&lt;/div&gt;&lt;/div&gt;&lt;div&gt;&lt;br&gt;&lt;/div&gt;" style="text;strokeColor=none;fillColor=none;align=left;verticalAlign=top;spacingLeft=4;spacingRight=4;overflow=hidden;rotatable=0;points=[[0,0.5],[1,0.5]];portConstraint=eastwest;whiteSpace=wrap;html=1;" vertex="1" parent="1">
          <mxGeometry x="-110" y="808" width="660" height="28" as="geometry" />
        </mxCell>
        <mxCell id="pljS_0pMEZ1_xS8Ss-Gu-39" value="&lt;div&gt;&lt;div&gt;- notifyFloorSubSystemNodesElevatorDetected(elevatorSubsystemCarID : int, floorNumber : int) : void&lt;/div&gt;&lt;/div&gt;&lt;div&gt;&lt;br&gt;&lt;/div&gt;" style="text;strokeColor=none;fillColor=none;align=left;verticalAlign=top;spacingLeft=4;spacingRight=4;overflow=hidden;rotatable=0;points=[[0,0.5],[1,0.5]];portConstraint=eastwest;whiteSpace=wrap;html=1;fontStyle=0" vertex="1" parent="1">
          <mxGeometry x="-110" y="778" width="660" height="26" as="geometry" />
        </mxCell>
        <mxCell id="pljS_0pMEZ1_xS8Ss-Gu-38" value="&lt;div&gt;- getElevatorCarWithTheGivenID(elevatorSubsystemCarID : int) : ElevatorSubsystem&lt;/div&gt;&lt;div&gt;&lt;br&gt;&lt;/div&gt;" style="text;strokeColor=none;fillColor=none;align=left;verticalAlign=top;spacingLeft=4;spacingRight=4;overflow=hidden;rotatable=0;points=[[0,0.5],[1,0.5]];portConstraint=eastwest;whiteSpace=wrap;html=1;" vertex="1" parent="1">
          <mxGeometry x="-110" y="748" width="660" height="26" as="geometry" />
        </mxCell>
        <mxCell id="pljS_0pMEZ1_xS8Ss-Gu-37" value="&lt;div&gt;+ notifySchedulerElevatorDetected(floorNumber : Integer, elevatorSubsystemCarID : int) : void&lt;/div&gt;&lt;div&gt;&lt;br&gt;&lt;/div&gt;" style="text;strokeColor=none;fillColor=none;align=left;verticalAlign=top;spacingLeft=4;spacingRight=4;overflow=hidden;rotatable=0;points=[[0,0.5],[1,0.5]];portConstraint=eastwest;whiteSpace=wrap;html=1;" vertex="1" parent="1">
          <mxGeometry x="-110" y="718" width="660" height="26" as="geometry" />
        </mxCell>
        <mxCell id="pljS_0pMEZ1_xS8Ss-Gu-36" value="&lt;div&gt;&lt;div&gt;+ registerElevatorSubsystemNode(elevatorSubsystemNode : Runnable) : void&lt;/div&gt;&lt;/div&gt;&lt;div&gt;&lt;br&gt;&lt;/div&gt;" style="text;strokeColor=none;fillColor=none;align=left;verticalAlign=top;spacingLeft=4;spacingRight=4;overflow=hidden;rotatable=0;points=[[0,0.5],[1,0.5]];portConstraint=eastwest;whiteSpace=wrap;html=1;" vertex="1" parent="1">
          <mxGeometry x="-110" y="688" width="660" height="26" as="geometry" />
        </mxCell>
        <mxCell id="pljS_0pMEZ1_xS8Ss-Gu-35" value="&lt;div&gt;+ getCurrentTrip(): ElevatorCall&lt;/div&gt;&lt;div&gt;&lt;br&gt;&lt;/div&gt;" style="text;strokeColor=none;fillColor=none;align=left;verticalAlign=top;spacingLeft=4;spacingRight=4;overflow=hidden;rotatable=0;points=[[0,0.5],[1,0.5]];portConstraint=eastwest;whiteSpace=wrap;html=1;" vertex="1" parent="1">
          <mxGeometry x="-110" y="658" width="660" height="26" as="geometry" />
        </mxCell>
        <mxCell id="pljS_0pMEZ1_xS8Ss-Gu-34" value="&lt;div&gt;&lt;div&gt;+ addRequest(elevatorCall : ElevatorCall) : void&lt;/div&gt;&lt;/div&gt;&lt;div&gt;&lt;br&gt;&lt;/div&gt;" style="text;strokeColor=none;fillColor=none;align=left;verticalAlign=top;spacingLeft=4;spacingRight=4;overflow=hidden;rotatable=0;points=[[0,0.5],[1,0.5]];portConstraint=eastwest;whiteSpace=wrap;html=1;" vertex="1" parent="1">
          <mxGeometry x="-110" y="628" width="660" height="26" as="geometry" />
        </mxCell>
        <mxCell id="pljS_0pMEZ1_xS8Ss-Gu-33" value="&lt;div&gt;+ getScheduler(scheduler : Scheduler) : Scheduler&lt;/div&gt;&lt;div&gt;&lt;br&gt;&lt;/div&gt;" style="text;strokeColor=none;fillColor=none;align=left;verticalAlign=top;spacingLeft=4;spacingRight=4;overflow=hidden;rotatable=0;points=[[0,0.5],[1,0.5]];portConstraint=eastwest;whiteSpace=wrap;html=1;" vertex="1" parent="1">
          <mxGeometry x="-110" y="598" width="660" height="26" as="geometry" />
        </mxCell>
        <mxCell id="pljS_0pMEZ1_xS8Ss-Gu-32" value="&lt;div&gt;- Scheduler()&lt;/div&gt;&lt;div&gt;&lt;br&gt;&lt;/div&gt;" style="text;strokeColor=none;fillColor=none;align=left;verticalAlign=top;spacingLeft=4;spacingRight=4;overflow=hidden;rotatable=0;points=[[0,0.5],[1,0.5]];portConstraint=eastwest;whiteSpace=wrap;html=1;" vertex="1" parent="1">
          <mxGeometry x="-110" y="568" width="660" height="26" as="geometry" />
        </mxCell>
        <mxCell id="pljS_0pMEZ1_xS8Ss-Gu-43" value="" style="endArrow=none;html=1;rounded=0;entryX=0.003;entryY=-0.158;entryDx=0;entryDy=0;entryPerimeter=0;exitX=1.001;exitY=0.833;exitDx=0;exitDy=0;exitPerimeter=0;" edge="1" parent="1" source="pljS_0pMEZ1_xS8Ss-Gu-32" target="pljS_0pMEZ1_xS8Ss-Gu-33">
          <mxGeometry width="50" height="50" relative="1" as="geometry">
            <mxPoint x="400" y="248" as="sourcePoint" />
            <mxPoint x="450" y="198" as="targetPoint" />
          </mxGeometry>
        </mxCell>
        <mxCell id="pljS_0pMEZ1_xS8Ss-Gu-44" value="ElevatorSubsystem" style="swimlane;fontStyle=1;align=center;verticalAlign=top;childLayout=stackLayout;horizontal=1;startSize=26;horizontalStack=0;resizeParent=1;resizeParentMax=0;resizeLast=0;collapsible=1;marginBottom=0;whiteSpace=wrap;html=1;" vertex="1" parent="1">
          <mxGeometry x="-700" y="620" width="549" height="450" as="geometry" />
        </mxCell>
        <mxCell id="pljS_0pMEZ1_xS8Ss-Gu-45" value="-&amp;nbsp;MOVE_TIME : int" style="text;strokeColor=none;fillColor=none;align=left;verticalAlign=top;spacingLeft=4;spacingRight=4;overflow=hidden;rotatable=0;points=[[0,0.5],[1,0.5]];portConstraint=eastwest;whiteSpace=wrap;html=1;" vertex="1" parent="pljS_0pMEZ1_xS8Ss-Gu-44">
          <mxGeometry y="26" width="549" height="26" as="geometry" />
        </mxCell>
        <mxCell id="pljS_0pMEZ1_xS8Ss-Gu-46" value="-&amp;nbsp;DOOR_TIME : int" style="text;strokeColor=none;fillColor=none;align=left;verticalAlign=top;spacingLeft=4;spacingRight=4;overflow=hidden;rotatable=0;points=[[0,0.5],[1,0.5]];portConstraint=eastwest;whiteSpace=wrap;html=1;" vertex="1" parent="pljS_0pMEZ1_xS8Ss-Gu-44">
          <mxGeometry y="52" width="549" height="26" as="geometry" />
        </mxCell>
        <mxCell id="pljS_0pMEZ1_xS8Ss-Gu-47" value="-&amp;nbsp;scheduler : Scheduler" style="text;strokeColor=none;fillColor=none;align=left;verticalAlign=top;spacingLeft=4;spacingRight=4;overflow=hidden;rotatable=0;points=[[0,0.5],[1,0.5]];portConstraint=eastwest;whiteSpace=wrap;html=1;" vertex="1" parent="pljS_0pMEZ1_xS8Ss-Gu-44">
          <mxGeometry y="78" width="549" height="26" as="geometry" />
        </mxCell>
        <mxCell id="pljS_0pMEZ1_xS8Ss-Gu-48" value="-&amp;nbsp;elevatorIdCounter : int" style="text;strokeColor=none;fillColor=none;align=left;verticalAlign=top;spacingLeft=4;spacingRight=4;overflow=hidden;rotatable=0;points=[[0,0.5],[1,0.5]];portConstraint=eastwest;whiteSpace=wrap;html=1;" vertex="1" parent="pljS_0pMEZ1_xS8Ss-Gu-44">
          <mxGeometry y="104" width="549" height="26" as="geometry" />
        </mxCell>
        <mxCell id="pljS_0pMEZ1_xS8Ss-Gu-49" value="-&amp;nbsp;elevatorId : int" style="text;strokeColor=none;fillColor=none;align=left;verticalAlign=top;spacingLeft=4;spacingRight=4;overflow=hidden;rotatable=0;points=[[0,0.5],[1,0.5]];portConstraint=eastwest;whiteSpace=wrap;html=1;" vertex="1" parent="pljS_0pMEZ1_xS8Ss-Gu-44">
          <mxGeometry y="130" width="549" height="26" as="geometry" />
        </mxCell>
        <mxCell id="pljS_0pMEZ1_xS8Ss-Gu-50" value="-&amp;nbsp;currentFloor&amp;nbsp;: int" style="text;strokeColor=none;fillColor=none;align=left;verticalAlign=top;spacingLeft=4;spacingRight=4;overflow=hidden;rotatable=0;points=[[0,0.5],[1,0.5]];portConstraint=eastwest;whiteSpace=wrap;html=1;" vertex="1" parent="pljS_0pMEZ1_xS8Ss-Gu-44">
          <mxGeometry y="156" width="549" height="26" as="geometry" />
        </mxCell>
        <mxCell id="pljS_0pMEZ1_xS8Ss-Gu-51" value="-&amp;nbsp;currentTrip&amp;nbsp;: ElevatorCall" style="text;strokeColor=none;fillColor=none;align=left;verticalAlign=top;spacingLeft=4;spacingRight=4;overflow=hidden;rotatable=0;points=[[0,0.5],[1,0.5]];portConstraint=eastwest;whiteSpace=wrap;html=1;" vertex="1" parent="pljS_0pMEZ1_xS8Ss-Gu-44">
          <mxGeometry y="182" width="549" height="26" as="geometry" />
        </mxCell>
        <mxCell id="pljS_0pMEZ1_xS8Ss-Gu-52" value="" style="line;strokeWidth=1;fillColor=none;align=left;verticalAlign=middle;spacingTop=-1;spacingLeft=3;spacingRight=3;rotatable=0;labelPosition=right;points=[];portConstraint=eastwest;strokeColor=inherit;" vertex="1" parent="pljS_0pMEZ1_xS8Ss-Gu-44">
          <mxGeometry y="208" width="549" height="8" as="geometry" />
        </mxCell>
        <mxCell id="pljS_0pMEZ1_xS8Ss-Gu-53" value="+ ElevatorSubsystem(scheduler: Scheduler): void" style="text;strokeColor=none;fillColor=none;align=left;verticalAlign=top;spacingLeft=4;spacingRight=4;overflow=hidden;rotatable=0;points=[[0,0.5],[1,0.5]];portConstraint=eastwest;whiteSpace=wrap;html=1;" vertex="1" parent="pljS_0pMEZ1_xS8Ss-Gu-44">
          <mxGeometry y="216" width="549" height="26" as="geometry" />
        </mxCell>
        <mxCell id="pljS_0pMEZ1_xS8Ss-Gu-54" value="+ getElevatorId(): int" style="text;strokeColor=none;fillColor=none;align=left;verticalAlign=top;spacingLeft=4;spacingRight=4;overflow=hidden;rotatable=0;points=[[0,0.5],[1,0.5]];portConstraint=eastwest;whiteSpace=wrap;html=1;" vertex="1" parent="pljS_0pMEZ1_xS8Ss-Gu-44">
          <mxGeometry y="242" width="549" height="26" as="geometry" />
        </mxCell>
        <mxCell id="pljS_0pMEZ1_xS8Ss-Gu-55" value="&lt;div&gt;+ getCurrentFloor(): int&lt;/div&gt;&lt;div&gt;&lt;br&gt;&lt;/div&gt;" style="text;strokeColor=none;fillColor=none;align=left;verticalAlign=top;spacingLeft=4;spacingRight=4;overflow=hidden;rotatable=0;points=[[0,0.5],[1,0.5]];portConstraint=eastwest;whiteSpace=wrap;html=1;" vertex="1" parent="pljS_0pMEZ1_xS8Ss-Gu-44">
          <mxGeometry y="268" width="549" height="26" as="geometry" />
        </mxCell>
        <mxCell id="pljS_0pMEZ1_xS8Ss-Gu-56" value="&lt;div&gt;+ getCurrentTrip(): ElevatorCall&lt;/div&gt;&lt;div&gt;&lt;br&gt;&lt;/div&gt;" style="text;strokeColor=none;fillColor=none;align=left;verticalAlign=top;spacingLeft=4;spacingRight=4;overflow=hidden;rotatable=0;points=[[0,0.5],[1,0.5]];portConstraint=eastwest;whiteSpace=wrap;html=1;" vertex="1" parent="pljS_0pMEZ1_xS8Ss-Gu-44">
          <mxGeometry y="294" width="549" height="26" as="geometry" />
        </mxCell>
        <mxCell id="pljS_0pMEZ1_xS8Ss-Gu-57" value="&lt;div&gt;+ setCurrentFloor(currentFloor: int): void&lt;/div&gt;&lt;div&gt;&lt;br&gt;&lt;/div&gt;" style="text;strokeColor=none;fillColor=none;align=left;verticalAlign=top;spacingLeft=4;spacingRight=4;overflow=hidden;rotatable=0;points=[[0,0.5],[1,0.5]];portConstraint=eastwest;whiteSpace=wrap;html=1;" vertex="1" parent="pljS_0pMEZ1_xS8Ss-Gu-44">
          <mxGeometry y="320" width="549" height="26" as="geometry" />
        </mxCell>
        <mxCell id="pljS_0pMEZ1_xS8Ss-Gu-58" value="+ run(): void" style="text;strokeColor=none;fillColor=none;align=left;verticalAlign=top;spacingLeft=4;spacingRight=4;overflow=hidden;rotatable=0;points=[[0,0.5],[1,0.5]];portConstraint=eastwest;whiteSpace=wrap;html=1;" vertex="1" parent="pljS_0pMEZ1_xS8Ss-Gu-44">
          <mxGeometry y="346" width="549" height="26" as="geometry" />
        </mxCell>
        <mxCell id="pljS_0pMEZ1_xS8Ss-Gu-59" value="+ toggleDoors(): void" style="text;strokeColor=none;fillColor=none;align=left;verticalAlign=top;spacingLeft=4;spacingRight=4;overflow=hidden;rotatable=0;points=[[0,0.5],[1,0.5]];portConstraint=eastwest;whiteSpace=wrap;html=1;" vertex="1" parent="pljS_0pMEZ1_xS8Ss-Gu-44">
          <mxGeometry y="372" width="549" height="26" as="geometry" />
        </mxCell>
        <mxCell id="pljS_0pMEZ1_xS8Ss-Gu-60" value="&lt;div&gt;+ move(direction: int): void&lt;/div&gt;&lt;div&gt;&lt;br&gt;&lt;/div&gt;" style="text;strokeColor=none;fillColor=none;align=left;verticalAlign=top;spacingLeft=4;spacingRight=4;overflow=hidden;rotatable=0;points=[[0,0.5],[1,0.5]];portConstraint=eastwest;whiteSpace=wrap;html=1;" vertex="1" parent="pljS_0pMEZ1_xS8Ss-Gu-44">
          <mxGeometry y="398" width="549" height="26" as="geometry" />
        </mxCell>
        <mxCell id="pljS_0pMEZ1_xS8Ss-Gu-61" value="&lt;div&gt;- notifyElevatorWithFloorDetected(floorNumber: int, elevatorCarDetected: ElevatorSubsystem): void&lt;/div&gt;&lt;div&gt;&lt;br&gt;&lt;/div&gt;" style="text;strokeColor=none;fillColor=none;align=left;verticalAlign=top;spacingLeft=4;spacingRight=4;overflow=hidden;rotatable=0;points=[[0,0.5],[1,0.5]];portConstraint=eastwest;whiteSpace=wrap;html=1;" vertex="1" parent="pljS_0pMEZ1_xS8Ss-Gu-44">
          <mxGeometry y="424" width="549" height="26" as="geometry" />
        </mxCell>
      </root>
    </mxGraphModel>
  </diagram>
</mxfile>
